<svg id="visual" viewBox="0 0 900 600" width="900" height="600" xmlns="http://www.w3.org/2000/svg" xmlns:xlink="http://www.w3.org/1999/xlink" version="1.1"><path d="M0 43L8.8 41C17.7 39 35.3 35 53 37C70.7 39 88.3 47 106 48C123.7 49 141.3 43 159 43C176.7 43 194.3 49 212 51C229.7 53 247.3 51 265 46C282.7 41 300.3 33 318 32C335.7 31 353.3 37 371 41C388.7 45 406.3 47 423.8 49C441.3 51 458.7 53 476.2 54C493.7 55 511.3 55 529 50C546.7 45 564.3 35 582 35C599.7 35 617.3 45 635 49C652.7 53 670.3 51 688 47C705.7 43 723.3 37 741 36C758.7 35 776.3 39 794 39C811.7 39 829.3 35 847 37C864.7 39 882.3 47 891.2 51L900 55L900 0L891.2 0C882.3 0 864.7 0 847 0C829.3 0 811.7 0 794 0C776.3 0 758.7 0 741 0C723.3 0 705.7 0 688 0C670.3 0 652.7 0 635 0C617.3 0 599.7 0 582 0C564.3 0 546.7 0 529 0C511.3 0 493.7 0 476.2 0C458.7 0 441.3 0 423.8 0C406.3 0 388.7 0 371 0C353.3 0 335.7 0 318 0C300.3 0 282.7 0 265 0C247.3 0 229.7 0 212 0C194.3 0 176.7 0 159 0C141.3 0 123.7 0 106 0C88.3 0 70.7 0 53 0C35.3 0 17.7 0 8.8 0L0 0Z" fill="#6198ff"></path><path d="M0 91L8.8 86C17.7 81 35.3 71 53 69C70.7 67 88.3 73 106 75C123.7 77 141.3 75 159 74C176.7 73 194.3 73 212 73C229.7 73 247.3 73 265 73C282.7 73 300.3 73 318 72C335.7 71 353.3 69 371 73C388.7 77 406.3 87 423.8 92C441.3 97 458.7 97 476.2 98C493.7 99 511.3 101 529 96C546.7 91 564.3 79 582 74C599.7 69 617.3 71 635 72C652.7 73 670.3 73 688 73C705.7 73 723.3 73 741 75C758.7 77 776.3 81 794 80C811.7 79 829.3 73 847 71C864.7 69 882.3 71 891.2 72L900 73L900 53L891.2 49C882.3 45 864.7 37 847 35C829.3 33 811.7 37 794 37C776.3 37 758.7 33 741 34C723.3 35 705.7 41 688 45C670.3 49 652.7 51 635 47C617.3 43 599.7 33 582 33C564.3 33 546.7 43 529 48C511.3 53 493.7 53 476.2 52C458.7 51 441.3 49 423.8 47C406.3 45 388.7 43 371 39C353.3 35 335.7 29 318 30C300.3 31 282.7 39 265 44C247.3 49 229.7 51 212 49C194.3 47 176.7 41 159 41C141.3 41 123.7 47 106 46C88.3 45 70.7 37 53 35C35.3 33 17.7 37 8.8 39L0 41Z" fill="#4f8cff"></path><path d="M0 211L8.8 206C17.7 201 35.3 191 53 200C70.7 209 88.3 237 106 234C123.7 231 141.3 197 159 178C176.7 159 194.3 155 212 161C229.7 167 247.3 183 265 187C282.7 191 300.3 183 318 184C335.7 185 353.3 195 371 205C388.7 215 406.3 225 423.8 223C441.3 221 458.7 207 476.2 200C493.7 193 511.3 193 529 201C546.7 209 564.3 225 582 231C599.7 237 617.3 233 635 220C652.7 207 670.3 185 688 187C705.7 189 723.3 215 741 219C758.7 223 776.3 205 794 203C811.7 201 829.3 215 847 212C864.7 209 882.3 189 891.2 179L900 169L900 71L891.2 70C882.3 69 864.7 67 847 69C829.3 71 811.7 77 794 78C776.3 79 758.7 75 741 73C723.3 71 705.7 71 688 71C670.3 71 652.7 71 635 70C617.3 69 599.7 67 582 72C564.3 77 546.7 89 529 94C511.3 99 493.7 97 476.2 96C458.7 95 441.3 95 423.8 90C406.3 85 388.7 75 371 71C353.3 67 335.7 69 318 70C300.3 71 282.7 71 265 71C247.3 71 229.7 71 212 71C194.3 71 176.7 71 159 72C141.3 73 123.7 75 106 73C88.3 71 70.7 65 53 67C35.3 69 17.7 79 8.8 84L0 89Z" fill="#3c80ff"></path><path d="M0 241L8.8 237C17.7 233 35.3 225 53 239C70.7 253 88.3 289 106 288C123.7 287 141.3 249 159 229C176.7 209 194.3 207 212 211C229.7 215 247.3 225 265 224C282.7 223 300.3 211 318 214C335.7 217 353.3 235 371 248C388.7 261 406.3 269 423.8 265C441.3 261 458.7 245 476.2 237C493.7 229 511.3 229 529 236C546.7 243 564.3 257 582 265C599.7 273 617.3 275 635 262C652.7 249 670.3 221 688 220C705.7 219 723.3 245 741 253C758.7 261 776.3 251 794 255C811.7 259 829.3 277 847 272C864.7 267 882.3 239 891.2 225L900 211L900 167L891.2 177C882.3 187 864.7 207 847 210C829.3 213 811.7 199 794 201C776.3 203 758.7 221 741 217C723.3 213 705.7 187 688 185C670.3 183 652.7 205 635 218C617.3 231 599.7 235 582 229C564.3 223 546.7 207 529 199C511.3 191 493.7 191 476.2 198C458.7 205 441.3 219 423.8 221C406.3 223 388.7 213 371 203C353.3 193 335.7 183 318 182C300.3 181 282.7 189 265 185C247.3 181 229.7 165 212 159C194.3 153 176.7 157 159 176C141.3 195 123.7 229 106 232C88.3 235 70.7 207 53 198C35.3 189 17.7 199 8.8 204L0 209Z" fill="#2573ff"></path><path d="M0 295L8.8 295C17.7 295 35.3 295 53 311C70.7 327 88.3 359 106 351C123.7 343 141.3 295 159 277C176.7 259 194.3 271 212 282C229.7 293 247.3 303 265 301C282.7 299 300.3 285 318 290C335.7 295 353.3 319 371 330C388.7 341 406.3 339 423.8 333C441.3 327 458.7 317 476.2 310C493.7 303 511.3 299 529 304C546.7 309 564.3 323 582 331C599.7 339 617.3 341 635 326C652.7 311 670.3 279 688 273C705.7 267 723.3 287 741 299C758.7 311 776.3 315 794 320C811.7 325 829.3 331 847 325C864.7 319 882.3 301 891.2 292L900 283L900 209L891.2 223C882.3 237 864.7 265 847 270C829.3 275 811.7 257 794 253C776.3 249 758.7 259 741 251C723.3 243 705.7 217 688 218C670.3 219 652.7 247 635 260C617.3 273 599.7 271 582 263C564.3 255 546.7 241 529 234C511.3 227 493.7 227 476.2 235C458.7 243 441.3 259 423.8 263C406.3 267 388.7 259 371 246C353.3 233 335.7 215 318 212C300.3 209 282.7 221 265 222C247.3 223 229.7 213 212 209C194.3 205 176.7 207 159 227C141.3 247 123.7 285 106 286C88.3 287 70.7 251 53 237C35.3 223 17.7 231 8.8 235L0 239Z" fill="#0066ff"></path><path d="M0 325L8.8 323C17.7 321 35.3 317 53 333C70.7 349 88.3 385 106 377C123.7 369 141.3 317 159 301C176.7 285 194.3 305 212 319C229.7 333 247.3 341 265 338C282.7 335 300.3 321 318 325C335.7 329 353.3 351 371 363C388.7 375 406.3 377 423.8 372C441.3 367 458.7 355 476.2 346C493.7 337 511.3 331 529 337C546.7 343 564.3 361 582 371C599.7 381 617.3 383 635 367C652.7 351 670.3 317 688 308C705.7 299 723.3 315 741 325C758.7 335 776.3 339 794 343C811.7 347 829.3 351 847 348C864.7 345 882.3 335 891.2 330L900 325L900 281L891.2 290C882.3 299 864.7 317 847 323C829.3 329 811.7 323 794 318C776.3 313 758.7 309 741 297C723.3 285 705.7 265 688 271C670.3 277 652.7 309 635 324C617.3 339 599.7 337 582 329C564.3 321 546.7 307 529 302C511.3 297 493.7 301 476.2 308C458.7 315 441.3 325 423.8 331C406.3 337 388.7 339 371 328C353.3 317 335.7 293 318 288C300.3 283 282.7 297 265 299C247.3 301 229.7 291 212 280C194.3 269 176.7 257 159 275C141.3 293 123.7 341 106 349C88.3 357 70.7 325 53 309C35.3 293 17.7 293 8.8 293L0 293Z" fill="#005fee"></path><path d="M0 463L8.8 470C17.7 477 35.3 491 53 497C70.7 503 88.3 501 106 490C123.7 479 141.3 459 159 454C176.7 449 194.3 459 212 465C229.7 471 247.3 473 265 473C282.7 473 300.3 471 318 473C335.7 475 353.3 481 371 477C388.7 473 406.3 459 423.8 454C441.3 449 458.7 453 476.2 456C493.7 459 511.3 461 529 465C546.7 469 564.3 475 582 480C599.7 485 617.3 489 635 485C652.7 481 670.3 469 688 468C705.7 467 723.3 477 741 483C758.7 489 776.3 491 794 490C811.7 489 829.3 485 847 485C864.7 485 882.3 489 891.2 491L900 493L900 323L891.2 328C882.3 333 864.7 343 847 346C829.3 349 811.7 345 794 341C776.3 337 758.7 333 741 323C723.3 313 705.7 297 688 306C670.3 315 652.7 349 635 365C617.3 381 599.7 379 582 369C564.3 359 546.7 341 529 335C511.3 329 493.7 335 476.2 344C458.7 353 441.3 365 423.8 370C406.3 375 388.7 373 371 361C353.3 349 335.7 327 318 323C300.3 319 282.7 333 265 336C247.3 339 229.7 331 212 317C194.3 303 176.7 283 159 299C141.3 315 123.7 367 106 375C88.3 383 70.7 347 53 331C35.3 315 17.7 319 8.8 321L0 323Z" fill="#0059dd"></path><path d="M0 529L8.8 532C17.7 535 35.3 541 53 545C70.7 549 88.3 551 106 540C123.7 529 141.3 505 159 501C176.7 497 194.3 513 212 522C229.7 531 247.3 533 265 535C282.7 537 300.3 539 318 538C335.7 537 353.3 533 371 528C388.7 523 406.3 517 423.8 513C441.3 509 458.7 507 476.2 510C493.7 513 511.3 521 529 522C546.7 523 564.3 517 582 519C599.7 521 617.3 531 635 528C652.7 525 670.3 509 688 510C705.7 511 723.3 529 741 539C758.7 549 776.3 551 794 552C811.7 553 829.3 553 847 549C864.7 545 882.3 537 891.2 533L900 529L900 491L891.2 489C882.3 487 864.7 483 847 483C829.3 483 811.7 487 794 488C776.3 489 758.7 487 741 481C723.3 475 705.7 465 688 466C670.3 467 652.7 479 635 483C617.3 487 599.7 483 582 478C564.3 473 546.7 467 529 463C511.3 459 493.7 457 476.2 454C458.7 451 441.3 447 423.8 452C406.3 457 388.7 471 371 475C353.3 479 335.7 473 318 471C300.3 469 282.7 471 265 471C247.3 471 229.7 469 212 463C194.3 457 176.7 447 159 452C141.3 457 123.7 477 106 488C88.3 499 70.7 501 53 495C35.3 489 17.7 475 8.8 468L0 461Z" fill="#0052cc"></path><path d="M0 601L8.8 601C17.7 601 35.3 601 53 601C70.7 601 88.3 601 106 601C123.7 601 141.3 601 159 601C176.7 601 194.3 601 212 601C229.7 601 247.3 601 265 601C282.7 601 300.3 601 318 601C335.7 601 353.3 601 371 601C388.7 601 406.3 601 423.8 601C441.3 601 458.7 601 476.2 601C493.7 601 511.3 601 529 601C546.7 601 564.3 601 582 601C599.7 601 617.3 601 635 601C652.7 601 670.3 601 688 601C705.7 601 723.3 601 741 601C758.7 601 776.3 601 794 601C811.7 601 829.3 601 847 601C864.7 601 882.3 601 891.2 601L900 601L900 527L891.2 531C882.3 535 864.7 543 847 547C829.3 551 811.7 551 794 550C776.3 549 758.7 547 741 537C723.3 527 705.7 509 688 508C670.3 507 652.7 523 635 526C617.3 529 599.7 519 582 517C564.3 515 546.7 521 529 520C511.3 519 493.7 511 476.2 508C458.7 505 441.3 507 423.8 511C406.3 515 388.7 521 371 526C353.3 531 335.7 535 318 536C300.3 537 282.7 535 265 533C247.3 531 229.7 529 212 520C194.3 511 176.7 495 159 499C141.3 503 123.7 527 106 538C88.3 549 70.7 547 53 543C35.3 539 17.7 533 8.8 530L0 527Z" fill="#004cbb"></path></svg>